<svg width="522" height="294" viewBox="0 0 522 294" fill="none" xmlns="http://www.w3.org/2000/svg">
<g clip-path="url(#clip0_119_15460)">
<path opacity="0.1" d="M55.218 146.02C37.0024 244.755 135.992 323.237 228.321 251.724C389.842 126.638 309.883 175.964 396.611 190.556C483.34 205.147 491.115 59.5078 421.488 61.3861C351.861 63.2645 330.464 121.302 257.71 67.8378C184.957 14.3733 70.4158 63.7545 55.218 146.02Z" fill="#2A94F4"/>
<path d="M244.008 294C306.006 294 356.265 243.677 356.265 181.599C356.265 119.522 306.006 69.1989 244.008 69.1989C182.01 69.1989 131.75 119.522 131.75 181.599C131.75 243.677 182.01 294 244.008 294Z" fill="#CCE9FF"/>
<path d="M119.435 157.154C128.684 157.154 136.182 149.646 136.182 140.385C136.182 131.124 128.684 123.616 119.435 123.616C110.185 123.616 102.687 131.124 102.687 140.385C102.687 149.646 110.185 157.154 119.435 157.154Z" fill="#0B4870"/>
<path d="M129.902 110.223C134.797 110.223 138.765 106.25 138.765 101.348C138.765 96.4471 134.797 92.4739 129.902 92.4739C125.007 92.4739 121.039 96.4471 121.039 101.348C121.039 106.25 125.007 110.223 129.902 110.223Z" fill="#FFBE55"/>
<path d="M147.655 130.612C149.277 130.612 150.591 129.296 150.591 127.672C150.591 126.049 149.277 124.732 147.655 124.732C146.033 124.732 144.719 126.049 144.719 127.672C144.719 129.296 146.033 130.612 147.655 130.612Z" fill="#0B4870"/>
<path d="M197.599 72.1117C197.599 72.1117 194.771 49.3267 201.894 38.9278C211.192 25.3983 237.564 21.6145 250.152 29.0734C264.072 37.3217 275.165 58.6095 270.298 77.2567C290.988 83.2183 295.936 106.766 281.39 112.809L293.842 139.514C301.591 156.119 293.679 175.964 275.899 184.539L244.062 199.893C244.062 199.893 185.31 209.148 173.674 181.899C162.037 154.649 184.82 134.777 184.82 134.777C184.82 134.777 166.224 114.088 175.087 93.9167C183.978 73.745 197.599 72.1117 197.599 72.1117Z" fill="#0B4870"/>
<path d="M287.943 150.185C287.943 150.185 341.339 158.651 355.803 158.025C367.14 158.651 385.818 96.5028 387.449 92.6917C396.502 87.0022 398.759 79.2167 398.623 74.9156C398.487 70.6144 386.932 66.9939 385.818 69.1717C387.721 63.4822 388.156 61.6855 388.672 59.7255C389.76 55.6694 386.66 52.5933 382.229 67.865C377.852 82.9189 378.287 80.4417 377.226 85.75C370.076 99.4972 351.643 131.565 350.392 136.411C326.494 135.839 286.012 126.529 286.012 126.529L287.943 150.185Z" fill="#FFE3CA"/>
<path d="M181.014 135.676C181.014 135.676 155.703 183.233 150.782 196.517C145.888 206.399 196.729 251.914 199.583 255.208C201.351 266.016 206.027 269.745 209.996 271.678C213.966 273.583 221.66 264.954 220.11 262.939C224.596 267.349 226.064 268.574 227.641 269.99C230.931 272.876 234.927 271.569 222.666 260.353C210.567 249.274 212.688 250.853 208.229 247.368C198.387 234.438 176.093 202.697 172.151 199.267C181.748 178.115 205.673 146.183 205.673 146.183L181.014 135.676Z" fill="#FFE3CA"/>
<path d="M239.005 294L253.768 229.865L278.917 244.946C278.917 244.946 280.956 263.402 283.566 287.331C283.566 287.331 263.882 294.463 239.005 294Z" fill="#0B4870"/>
<path d="M264.371 292.04C268.395 267.703 271.603 248.103 271.603 248.103C271.603 248.103 202.792 238.521 202.547 257.359C202.465 263.13 203.145 274.237 204.749 286.922C240.936 298.573 264.371 292.04 264.371 292.04Z" fill="#0E538C"/>
<path d="M264.888 167.988C262.849 172.725 278.319 238.494 280.901 253.657C280.901 253.657 280.575 253.602 279.95 253.493C273.235 252.486 232.154 247.069 198.958 260.925L195.913 168.016L195.777 164.558C195.777 164.558 195.777 161.047 196.104 155.684V155.629C196.865 144.577 199.149 125.93 206.245 113.952C209.915 107.746 214.781 103.308 221.442 102.655C242.078 100.613 241.969 109.079 261.136 113.816L292.239 121.547C292.239 121.547 288.759 145.693 292.239 152.88H270.652C270.652 152.853 266.9 163.197 264.888 167.988Z" fill="#FFBE55"/>
<path d="M253.034 40.67C253.034 40.67 271.957 69.09 262.033 82.9733C254.611 93.3722 242.159 98.8167 242.159 98.8167V113.789C242.159 113.789 240.664 115.123 238.054 115.259C233.514 115.504 221.442 108.208 221.442 108.208V49.245L253.034 40.67Z" fill="#FFE3CA"/>
<path d="M195.859 171.827C195.859 171.827 224.406 138.697 219.865 122.745C215.325 106.793 193.738 112.264 181.667 130.639C169.596 149.014 164.811 155.303 164.811 155.303C164.811 155.303 177.235 172.126 195.859 171.827Z" fill="#FFBE55"/>
<path d="M252.98 37.975C252.98 37.975 254.448 67.5656 240.202 74.725C225.955 81.8844 236.722 99.5244 223.155 112.7C219.131 116.593 213.15 115.939 208.555 114.578C201.976 112.618 194.445 114.034 189.85 118.798C189.415 119.261 189.008 119.751 188.681 120.241C171.064 108.589 215.706 43.8278 215.706 43.8278L252.98 37.975Z" fill="#0B4870"/>
<path d="M304.717 199.757C298.546 209.312 294.957 220.691 294.957 232.913C294.957 266.642 322.28 294 355.966 294C389.651 294 416.975 266.642 416.975 232.913C416.975 199.185 389.651 171.827 355.966 171.827C341.094 171.827 327.446 177.162 316.87 186.037L296.18 180.565L304.717 199.757Z" fill="#FFBE55"/>
<path d="M376.329 16.7689C376.329 26.0244 368.825 37.975 359.582 37.975C350.338 37.975 342.834 26.0244 342.834 16.7689C342.834 7.51333 350.311 0 359.582 0C368.852 0 376.329 7.51333 376.329 16.7689Z" fill="#FFBE55"/>
<path d="M360.098 45.57C358.385 45.57 356.781 44.3722 355.367 42.0039C354.361 40.3161 355.123 35.2256 355.938 29.8356C356.156 28.42 356.346 27.0317 356.536 25.7794C355.34 22.05 355.612 19.6272 356.128 18.9194C356.319 18.6472 356.591 18.5656 356.835 18.6744C357.325 18.9194 357.597 19.9539 357.597 21.6145C357.597 22.7033 357.461 24.0917 357.27 25.6433C357.352 25.9156 357.461 26.1878 357.569 26.4872C358.548 29.1006 359.527 28.5289 359.853 28.3111C360.642 27.8483 361.403 26.5417 361.974 25.0445C361.756 21.6689 362.001 19.2461 362.382 18.5383C362.572 18.1572 362.817 18.13 362.925 18.13C363.306 18.1572 363.496 18.6744 363.551 18.8378C364.04 20.1444 363.605 22.8939 362.708 25.235C362.98 29.1822 363.904 34.5995 366.188 40.2889L366.297 40.5339L366.161 40.7517C366.052 40.9422 363.523 45.4339 360.179 45.4883C360.152 45.57 360.125 45.57 360.098 45.57ZM357.026 27.2222C356.89 28.1206 356.754 29.0461 356.618 29.9989C355.911 34.7356 355.095 40.0711 355.911 41.4322C357.216 43.5828 358.63 44.6717 360.125 44.6445C362.708 44.59 364.856 41.3778 365.399 40.5067C363.415 35.4978 362.436 30.5978 362.055 26.6778C361.484 27.8211 360.805 28.7467 360.098 29.155C359.445 29.5906 358.14 29.8628 357.026 27.2222ZM356.591 19.6C356.4 19.9539 356.156 21.3967 356.727 23.8739C356.808 23.03 356.863 22.2678 356.863 21.6417C356.863 20.3622 356.672 19.7906 356.591 19.6ZM362.871 19.2733C362.708 19.8178 362.545 21.1789 362.572 23.1389C363.007 21.56 363.17 20.0356 362.871 19.2733Z" fill="white"/>
<path d="M359.582 47.8567C356.21 47.8567 353.41 45.2978 353.138 41.9494L352.567 35.525L354.28 36.1783C357.787 37.5122 361.648 37.485 365.128 36.0967L366.569 35.525L365.998 41.9494C365.726 45.2978 362.926 47.8567 359.582 47.8567Z" fill="#0B4870"/>
<path d="M428.828 48.8094C426.871 53.4644 420.563 57.9017 415.914 55.9417C411.265 53.9817 410.015 46.3867 411.972 41.7044C413.93 37.0494 419.285 34.8444 423.962 36.8044C428.638 38.7644 430.786 44.1272 428.828 48.8094Z" fill="#FFBE55"/>
<path d="M414.555 59.8617C413.685 59.5078 413.141 58.555 412.924 57.0578C412.76 55.9961 414.229 53.6005 415.778 51.0689C416.186 50.4155 416.567 49.7622 416.92 49.1633C417.11 47.04 417.763 45.8694 418.171 45.6244C418.334 45.5155 418.47 45.5428 418.579 45.6517C418.769 45.8694 418.687 46.4683 418.334 47.285C418.116 47.8294 417.736 48.51 417.301 49.245C417.301 49.4083 417.274 49.5717 417.274 49.735C417.219 51.2594 417.817 51.1778 418.035 51.1505C418.524 51.0689 419.177 50.5789 419.802 49.9528C420.4 48.2105 421.053 47.04 421.379 46.7678C421.542 46.6317 421.678 46.6589 421.732 46.6861C421.923 46.795 421.895 47.0672 421.895 47.1761C421.868 47.9383 421.053 49.2178 420.101 50.225C419.394 52.2667 418.714 55.1794 418.687 58.5278V58.6639L418.579 58.7456C418.497 58.8272 416.268 60.5422 414.582 59.8617C414.582 59.8617 414.582 59.8617 414.555 59.8617ZM416.893 49.98C416.648 50.4155 416.376 50.8511 416.104 51.2867C414.745 53.5189 413.223 56.0505 413.331 56.8944C413.522 58.2555 414.011 59.0994 414.772 59.3989C416.077 59.9161 417.844 58.7456 418.307 58.4189C418.361 55.4789 418.905 52.8111 419.557 50.7422C419.041 51.205 418.497 51.5044 418.062 51.5861C417.6 51.6678 416.893 51.5317 416.893 49.98ZM418.279 46.0328C418.116 46.1689 417.681 46.8494 417.464 48.2105C417.681 47.8022 417.872 47.4211 418.008 47.1217C418.252 46.4955 418.307 46.1689 418.279 46.0328ZM421.515 47.2033C421.324 47.4483 420.944 48.1017 420.563 49.0817C421.107 48.4011 421.515 47.6661 421.515 47.2033Z" fill="white"/>
<path d="M413.821 60.8961C412.135 60.1883 411.265 58.31 411.809 56.5678L412.896 53.2195L413.63 53.9C415.099 55.3156 417.056 56.105 419.095 56.1595L419.938 56.1867L418.307 59.29C417.464 60.9233 415.506 61.6039 413.821 60.8961Z" fill="#0B4870"/>
<path d="M363.66 75.4328C363.986 79.1894 361.403 84.3072 357.651 84.6339C353.899 84.9605 350.419 80.4144 350.093 76.6578C349.767 72.9011 352.513 69.58 356.265 69.2533C360.017 68.9267 363.306 71.6761 363.66 75.4328Z" fill="#FFBE55"/>
<path d="M358.113 87.6828C357.407 87.7372 356.727 87.3289 356.074 86.4033C355.612 85.75 355.721 83.6539 355.857 81.4489C355.884 80.8772 355.911 80.3056 355.938 79.7883C355.313 78.3183 355.34 77.3383 355.531 77.0389C355.612 76.93 355.694 76.8756 355.802 76.9028C356.02 76.9844 356.156 77.3928 356.21 78.0733C356.237 78.5089 356.237 79.0806 356.21 79.7339C356.265 79.8428 356.319 79.9517 356.373 80.0606C356.863 81.095 357.243 80.8228 357.352 80.7139C357.651 80.4961 357.923 79.9517 358.086 79.3256C357.869 77.9644 357.896 76.9844 358.005 76.685C358.059 76.5217 358.168 76.4944 358.222 76.4944C358.385 76.4944 358.467 76.685 358.494 76.7667C358.739 77.2839 358.657 78.4 358.385 79.4072C358.63 80.9861 359.201 83.1639 360.343 85.3689L360.397 85.4778L360.343 85.5867C360.316 85.6683 359.446 87.5739 358.086 87.7372C358.141 87.6828 358.141 87.6828 358.113 87.6828ZM356.21 80.36C356.183 80.7139 356.156 81.1222 356.156 81.5033C356.047 83.4361 355.911 85.6411 356.292 86.1583C356.89 86.975 357.515 87.3833 358.113 87.3017C359.147 87.1928 359.908 85.8044 360.098 85.4233C359.119 83.4633 358.548 81.5033 358.222 79.9244C358.032 80.4144 357.787 80.7956 357.515 81.0133C357.271 81.2311 356.754 81.3944 356.21 80.36ZM355.748 77.2839C355.667 77.4472 355.639 78.0461 355.966 78.9989C355.966 78.645 355.966 78.3456 355.938 78.1006C355.884 77.5833 355.802 77.3656 355.748 77.2839ZM358.304 76.93C358.249 77.1478 358.249 77.7194 358.331 78.5089C358.44 77.8556 358.44 77.2294 358.304 76.93Z" fill="white"/>
<path d="M358.005 88.6355C356.645 88.7716 355.422 87.8189 355.177 86.485L354.715 83.8989L355.422 84.0894C356.89 84.4978 358.467 84.3344 359.826 83.6539L360.397 83.3544V85.9678C360.397 87.3833 359.364 88.5266 358.005 88.6355Z" fill="#0B4870"/>
</g>
<defs>
<clipPath id="clip0_119_15460">
<rect width="522" height="294" fill="white"/>
</clipPath>
</defs>
</svg>
